<svg
  xmlns="http://www.w3.org/2000/svg"
  viewBox="0 0 24 24"
  width="100%"
  height="100%"
  fill="none"
  preserveAspectRatio="xMidYMid meet"
  overflow="visible"
  style="display: block"
>
  <!-- Lucide "headset" (ISC) — https://lucide.dev/icons/headset — 色のみ #2C4957 に統一 -->
  <g stroke="#2C4957" stroke-width="1.25" stroke-linecap="round" stroke-linejoin="round">
    <path d="M3 11h3a2 2 0 0 1 2 2v3a2 2 0 0 1-2 2H5a2 2 0 0 1-2-2v-5Zm0 0a9 9 0 1 1 18 0m0 0v5a2 2 0 0 1-2 2h-1a2 2 0 0 1-2-2v-3a2 2 0 0 1 2-2h3Z" />
    <path d="M21 16v2a4 4 0 0 1-4 4h-5" />
  </g>
</svg>
