<svg preserveAspectRatio="none" width="100%" height="100%" overflow="visible" style="display: block;" viewBox="0 0 70.2389 68.1083" fill="none" xmlns="http://www.w3.org/2000/svg">
<g id="Group 7">
<path id="Blob" d="M29.9259 54.6107C27.9495 58.7833 23.8833 62.6997 17.7273 66.3598C11.5713 70.02 6.59792 67.9337 2.80712 60.1009C-0.983681 52.2682 -0.935081 44.5087 2.95292 36.8224C6.84092 29.1361 12.1059 26.4642 18.7479 28.8067C25.3899 31.1492 29.4075 34.9923 30.8007 40.3361C32.1939 45.68 31.9023 50.4382 29.9259 54.6107Z" fill="var(--fill-0, #FFDED4)"/>
<path id="Blob_2" d="M67.1304 27.5801C62.8464 33.721 57.0684 37.7878 49.7964 39.7806C42.5244 41.7733 36.7284 38.7028 32.4084 30.5692C28.0884 22.4355 28.4844 15.0949 33.5964 8.54727C38.7084 1.99967 44.3604 -0.786108 50.5524 0.189932C56.7444 1.16597 62.1264 4.43977 66.6984 10.0113C71.2704 15.5829 71.4144 21.4391 67.1304 27.5801Z" fill="var(--fill-0, #FFA2A2)"/>
</g>
</svg>
