<svg preserveAspectRatio="none" width="100%" height="100%" overflow="visible" style="display: block;" viewBox="0 0 31.68 31.68" fill="none" xmlns="http://www.w3.org/2000/svg">
<g id="basil:fire-solid">
<path id="Vector" d="M15.9229 2.72573C15.7561 2.65093 15.5702 2.62967 15.3907 2.6649C15.2113 2.70012 15.0472 2.79008 14.9211 2.92241C14.7981 3.0492 14.7089 3.20481 14.6616 3.375C14.6143 3.54519 14.6105 3.72452 14.6505 3.89657C14.7811 4.47737 14.8498 5.08457 14.8498 5.70497C14.8498 7.12529 14.4921 8.12057 13.8756 8.94557C13.2499 9.78377 12.3444 10.4662 11.2 11.2358C11.1822 11.248 11.1654 11.2617 11.1498 11.2767L11.0112 11.4166C9.56402 12.3503 8.41843 13.6834 7.71308 15.2545C7.00772 16.8257 6.77284 18.5676 7.03685 20.2695C7.30086 21.9714 8.05245 23.5603 9.20066 24.8439C10.3489 26.1276 11.8445 27.0509 13.5066 27.5023C15.1686 27.9536 16.9258 27.9136 18.5656 27.387C20.2054 26.8605 21.6574 25.87 22.746 24.5354C23.8346 23.2008 24.513 21.5794 24.6993 19.8672C24.8855 18.1551 24.5716 16.4256 23.7954 14.8882C23.7709 14.8397 23.7349 14.798 23.6904 14.7668C23.6459 14.7356 23.5944 14.7159 23.5405 14.7093C23.4866 14.7028 23.4319 14.7097 23.3812 14.7294C23.3306 14.7491 23.2856 14.781 23.2503 14.8222L22.9757 15.1403C21.8167 16.4947 20.8809 17.5889 18.9629 18.0773C18.8811 18.0971 18.8309 18.0826 18.7953 18.0602C18.7383 18.0203 18.6961 17.9628 18.6751 17.8965C18.6406 17.8051 18.6314 17.706 18.6486 17.6098C18.6658 17.5136 18.7087 17.4238 18.7728 17.35C19.7985 16.2373 20.5271 14.7272 20.7871 12.5795C21.2755 8.55617 19.4473 4.27145 15.9229 2.72573Z" fill="var(--fill-0, #FB6B6A)"/>
</g>
</svg>
