<svg preserveAspectRatio="none" width="100%" height="100%" overflow="visible" style="display: block;" viewBox="0 0 28.8 28.8" fill="none" xmlns="http://www.w3.org/2000/svg">
<g id="mdi:prohibited">
<path id="Vector" d="M14.3999 2.3999C20.9999 2.3999 26.3999 7.7999 26.3999 14.3999C26.3999 20.9999 20.9999 26.3999 14.3999 26.3999C7.7999 26.3999 2.3999 20.9999 2.3999 14.3999C2.3999 7.7999 7.7999 2.3999 14.3999 2.3999ZM14.3999 4.7999C12.1199 4.7999 10.0799 5.5199 8.5199 6.8399L21.9599 20.2799C23.1599 18.5999 23.9999 16.5599 23.9999 14.3999C23.9999 9.1199 19.6799 4.7999 14.3999 4.7999ZM20.2799 21.9599L6.8399 8.5199C5.5199 10.0799 4.7999 12.1199 4.7999 14.3999C4.7999 19.6799 9.1199 23.9999 14.3999 23.9999C16.6799 23.9999 18.7199 23.2799 20.2799 21.9599Z" fill="var(--fill-0, #FB6B6A)"/>
</g>
</svg>
